<?xml version="1.0" standalone="no"?>
<!DOCTYPE svg PUBLIC "-//W3C//DTD SVG 1.0//EN" "http://www.w3.org/TR/2001/REC-SVG-20010904/DTD/svg10.dtd">
<svg xmlns="http://www.w3.org/2000/svg" xmlns:xlink="http://www.w3.org/1999/xlink" id="body_1" width="48" height="48">

<defs>
    <linearGradient transform="matrix(1 0 0 1 0 0)"  id="1" x1="0.69435" y1="-0.26004" x2="-0.26889" y2="0.23043">
        <stop stop-color="#FF7BFF" offset="0%"/>
        <stop stop-color="#8800CC" offset="100%"/>
    </linearGradient>
    <linearGradient transform="matrix(1 0 0 1 0 0)"  id="238" x1="0.36259" y1="-0.19705" x2="1.11722" y2="0.44973">
        <stop stop-color="#FF7BFF" offset="0%"/>
        <stop stop-color="#311B92" offset="100%"/>
    </linearGradient>
</defs>

<g transform="matrix(0.4528302 0 0 0.4528302 0 0)">
	<g>
        <path d="M55.401 0C 66.7578 3.15862 77.1051 11.1183 81.3954 20.8469C 87.9571 36.64 86.4429 56.6025 79.2503 68.4789C 73.1933 78.2074 63.8555 83.387596 53.129597 83.2612C 36.472996 83.1349 22.971096 69.8687 22.844896 53.1912C 22.844896 36.5136 35.968296 22.7421 53.129597 22.7421C 55.905697 22.7421 59.908497 23.1271 64.451195 25.0222C 64.451195 25.0222 61.185394 23.0879 52.797894 21.7885C 28.696293 18.6299 0.2575035 36.8927 6.8192024 78.9655C 15.9045925 95.1376 33.31839 106.13 53.129593 106.003C 82.278694 105.877 106.12799 81.9978 106.00199 52.6858C 106.00199 24.6372 83.16199 0.7580681 55.40099 0L55.40099 0L55.401 0z" stroke="none" fill="url(#1)" />
        <path d="M75.2114 22.3618C 71.1735 13.896699 62.845203 7.2003794 52.624104 4.54714C 50.352703 3.91542 47.955204 3.6627202 45.305305 3.5363803C 41.393505 3.5363803 37.607906 4.0417705 33.696106 5.0525303C 23.979706 7.9584603 17.165707 13.644 13.127707 18.066C 7.9540668 24.0042 4.5470266 30.195099 2.5280466 36.386C 2.5280466 36.5124 2.4018567 36.638702 2.4018567 36.891403C 2.2756667 37.396805 1.7709267 38.912903 1.7709267 39.292004C 1.6447368 39.544704 1.6447368 39.923702 1.5185567 40.176403C 1.3923666 40.681805 1.2661767 41.187103 1.1399968 41.692505C 1.1399968 41.818905 1.1399968 41.945206 1.0138068 42.071507C -2.267043 58.370007 3.1832368 72.99631 6.464087 78.42911C 7.284697 79.78801 7.958557 80.92171 8.633907 81.96191C 1.1889071 41.531506 22.591707 22.235405 46.945705 21.730007C 59.690506 21.477407 72.4353 26.657507 78.61851 37.017807C 78.23991 31.332207 77.861404 28.173607 75.21141 22.361807L75.21141 22.361807L75.2114 22.3618z" stroke="none" fill="url(#238)" />
		<g>
            <path d="M132.603 82.8571C 130.045 82.4532 127.737 81.8569 125.64 81.106705L125.64 81.106705L125.64 72.2198C 130.603 73.8356 135.296 74.624306 139.74 74.624306C 143.606 74.624306 146.472 73.87411 148.377 72.3737C 150.262 70.87331 151.204 68.6997 151.204 65.8143C 151.204 64.1985 150.916 62.852 150.33899 61.7363C 149.762 60.6207 148.79999 59.6397 147.45299 58.7741C 146.107 57.9085 144.27899 57.081303 141.93298 56.2927L141.93298 56.2927L138.16199 55.0231C 128.94899 51.887703 124.331985 46.04 124.331985 37.5186C 124.331985 33.71 125.15899 30.4399 126.832985 27.7085C 128.50598 24.977 130.98799 22.8803 134.29599 21.4184C 137.605 19.9757 141.702 19.2448 146.549 19.2448C 148.74199 19.2448 150.935 19.3794 153.08899 19.6679C 155.24399 19.956501 157.148 20.3412 158.78299 20.8605L158.78299 20.8605L158.78299 29.709C 155.37799 28.6318 151.58899 28.093199 147.43399 28.093199C 139.02798 28.093199 134.81499 30.978498 134.81499 36.73C 134.81499 38.2881 135.08499 39.5769 135.60399 40.6156C 136.12299 41.6543 137.008 42.5969 138.21999 43.4048C 139.45099 44.2319 141.14398 45.0013 143.318 45.7323L143.318 45.7323L147.088 47.0018C 151.87799 48.6176 155.513 50.849 157.994 53.7151C 160.457 56.5812 161.707 60.3129 161.707 64.9102C 161.707 68.7766 160.86101 72.1044 159.149 74.8743C 157.437 77.644295 154.955 79.779396 151.685 81.2606C 148.415 82.7417 144.472 83.472694 139.874 83.472694C 137.58499 83.472694 135.16199 83.2803 132.603 82.85709L132.603 82.85709L132.603 82.8571z" stroke="none" fill="#FFFFFF" fill-rule="nonzero" />
            <path d="M168.69 30.3242C 167.74701 29.4393 167.286 28.189 167.286 26.5732C 167.286 24.957401 167.747 23.7071 168.69 22.803C 169.632 21.9182 171.017 21.4565 172.845 21.4565C 174.672 21.4565 176.076 21.9182 177.019 22.8223C 177.961 23.7264 178.442 24.9767 178.442 26.5732C 178.442 28.189001 177.981 29.4393 177.038 30.3242C 176.096 31.209 174.711 31.6514 172.845 31.6514C 171.017 31.6514 169.632 31.209 168.69 30.3242z" stroke="none" fill="#FFFFFF" fill-rule="nonzero" />
            <path d="M178.345 36.4977L168.054 36.4977L168.054 82.6633L178.345 82.6633L178.345 36.4977z" stroke="none" fill="#FFFFFF" fill-rule="nonzero" />
            <path d="M187.463 36.4995L196.004 36.4995L196.773 41.4431L197.331 41.4431C 198.793 39.6157 200.52399 38.2115 202.50499 37.2305C 204.486 36.2495 206.67899 35.7686 209.08398 35.7686C 213.00798 35.7686 216.12398 36.9996 218.41298 39.4618C 220.70198 41.924 221.85597 45.9058 221.85597 51.3687L221.85597 51.3687L221.85597 82.6459L211.62297 82.6459L211.62297 52.157394C 211.62297 49.560493 211.10397 47.713894 210.06497 46.617493C 209.02597 45.52109 207.54497 44.963192 205.62097 44.963192C 204.15897 44.963192 202.67798 45.328693 201.21597 46.040394C 199.75397 46.752094 198.58098 47.848595 197.69597 49.329693L197.69597 49.329693L197.69597 82.68439L187.46297 82.68439L187.46297 36.49949L187.463 36.4995z" stroke="none" fill="#FFFFFF" fill-rule="nonzero" />
            <path d="M242.939 93.8973C 246.86299 93.8973 249.748 92.9932 251.614 91.185C 253.48 89.3769 254.403 86.3377 254.403 82.048096L254.403 82.048096L254.403 77.989395L253.903 77.989395C 252.922 79.605194 251.556 80.874695 249.845 81.836494C 248.133 82.798294 246.17 83.2792 243.95801 83.2792C 241.188 83.2792 238.669 82.5097 236.38 80.9709C 234.09001 79.432 232.244 76.9506 230.85901 73.5459C 229.455 70.1412 228.76201 65.7747 228.76201 60.4657C 228.76201 52.2328 230.60901 46.058197 234.283 41.980198C 237.957 37.883 243.535 35.8248 251.018 35.805496C 253.326 35.805496 255.711 35.9979 258.174 36.401794C 260.63602 36.805794 262.79 37.325195 264.656 38.017593L264.656 38.017593L264.656 80.37459C 264.656 88.011185 262.92502 93.57029 259.501 97.01339C 256.058 100.45699 250.826 102.16899 243.80501 102.16899C 243.43901 102.16899 243.304 102.16899 242.93901 102.148994L242.93901 102.148994L242.93901 93.89729L242.939 93.8973zM251.653 73.7575C 252.826 73.1804 253.749 72.3725 254.423 71.3723L254.423 71.3723L254.423 44.288498C 253.018 43.980698 251.595 43.826797 250.19101 43.826797C 246.55501 43.826797 243.824 45.019398 241.996 47.423897C 240.169 49.828297 239.265 53.848595 239.265 59.523098C 239.265 63.466396 239.611 66.5634 240.323 68.7755C 241.035 70.987595 242.01599 72.5264 243.26599 73.372795C 244.51599 74.21919 246.11299 74.642395 248.036 74.642395C 249.267 74.642395 250.47899 74.3538 251.653 73.75749z" stroke="none" fill="#FFFFFF" fill-rule="nonzero" />
            <path d="M273.794 82.6831L273.794 14.280998L284.027 14.280998L284.027 82.663795L273.794 82.663795L273.794 82.6831z" stroke="none" fill="#FFFFFF" fill-rule="nonzero" />
            <path d="M325.808 62.8716L301.648 62.8716C 301.763 66.007 302.225 68.450005 303.052 70.2389C 303.879 72.0086 305.129 73.2781 306.822 74.0475C 308.51498 74.817 310.76498 75.1825 313.593 75.1825C 316.498 75.1825 319.86398 74.64381 323.67297 73.5667L323.67297 73.5667L323.67297 81.895706C 321.61398 82.45351 319.69098 82.87671 317.90198 83.12681C 316.11298 83.37681 314.266 83.511505 312.38098 83.511505C 307.47598 83.511505 303.47498 82.703606 300.378 81.0686C 297.281 79.4335 294.992 76.875206 293.492 73.374306C 291.991 69.8542 291.241 65.21841 291.241 59.428406C 291.241 51.522606 292.799 45.617207 295.915 41.673904C 299.032 37.730606 303.437 35.768604 309.15 35.768604C 320.268 35.768604 325.827 43.751404 325.827 59.717003L325.827 59.717003L325.827 62.8716L325.80798 62.8716L325.808 62.8716zM305.12903 44.001404C 304.071 44.790104 303.22504 46.175102 302.61002 48.156303C 301.99402 50.137604 301.66702 52.849804 301.62802 56.331505L301.62802 56.331505L316.15103 56.331505C 316.13202 52.869106 315.82404 50.137604 315.26703 48.156303C 314.709 46.175102 313.92004 44.790104 312.90103 44.001404C 311.88104 43.212803 310.61203 42.808804 309.09204 42.808804C 307.51505 42.808804 306.18704 43.212803 305.12903 44.001404z" stroke="none" fill="#FFFFFF" fill-rule="nonzero" />
            <path d="M339.46 82.8558C 336.90198 82.4519 334.594 81.8556 332.49698 81.1054L332.49698 81.1054L332.49698 72.2185C 337.46 73.8343 342.15298 74.623 346.597 74.623C 350.46298 74.623 353.32898 73.8728 355.23398 72.3724C 357.119 70.872 358.06097 68.698395 358.06097 65.812996C 358.06097 64.1972 357.77298 62.850697 357.19598 61.735096C 356.619 60.619396 355.65698 59.638397 354.31 58.772797C 352.964 57.907196 351.136 57.079998 348.79 56.291397L348.79 56.291397L345.019 55.021797C 335.786 51.8672 331.18903 46.019497 331.18903 37.498096C 331.18903 33.689495 332.01602 30.419395 333.69003 27.687897C 335.36304 24.956497 337.84503 22.859797 341.15305 21.397896C 344.46204 19.955196 348.55905 19.224195 353.40604 19.224195C 355.59903 19.224195 357.79202 19.358896 359.94604 19.647396C 362.10104 19.935997 364.00504 20.320696 365.64005 20.839996L365.64005 20.839996L365.64005 29.688496C 362.23505 28.611296 358.44604 28.072596 354.29105 28.072596C 345.88504 28.072596 341.67206 30.957996 341.67206 36.709496C 341.67206 38.267597 341.94205 39.556297 342.46106 40.595097C 342.98007 41.633797 343.86505 42.576397 345.07706 43.384296C 346.30804 44.211395 348.00107 44.980797 350.17505 45.711796L350.17505 45.711796L353.94504 46.981297C 358.73404 48.597095 362.37003 50.828396 364.85104 53.694595C 367.31406 56.560696 368.56406 60.292397 368.56406 64.889694C 368.56406 68.756096 367.71707 72.08389 366.00604 74.85379C 364.29404 77.62369 361.81204 79.75889 358.54205 81.23999C 355.27206 82.72119 351.32904 83.45209 346.73105 83.45209C 344.42303 83.47139 341.99905 83.278984 339.46005 82.85579L339.46005 82.85579L339.46 82.8558z" stroke="none" fill="#FFFFFF" fill-rule="nonzero" />
            <path d="M398.687 74.124L398.687 82.6647C 396.45502 83.2033 394.147 83.4726 391.743 83.4726C 386.914 83.4726 383.26 82.203 380.74002 79.6447C 378.22003 77.086296 376.97003 73.0276 376.97003 67.4877L376.97003 67.4877L376.97003 44.674202L369.91003 44.674202L369.91003 36.4991L376.97003 36.4991L378.79703 20.0333L387.22202 20.0333L387.22202 36.4991L398.302 36.4991L398.302 44.674202L387.22202 44.674202L387.22202 66.2567C 387.22202 68.3726 387.453 70.0461 387.93402 71.2579C 388.415 72.469795 389.165 73.335396 390.18503 73.8547C 391.20404 74.3741 392.57004 74.643394 394.28204 74.643394C 395.32004 74.643394 396.78204 74.47029 398.68704 74.12399L398.68704 74.12399L398.687 74.124z" stroke="none" fill="#FFFFFF" fill-rule="nonzero" />
            <path d="M406.459 77.738C 403.26602 73.8909 401.669 67.8894 401.669 59.771896C 401.669 43.767796 407.844 35.784996 420.174 35.784996C 426.09802 35.784996 430.657 37.747097 433.86902 41.671097C 437.06302 45.595196 438.678 51.596798 438.678 59.694996C 438.678 75.583595 432.504 83.528 420.193 83.528C 414.22998 83.528 409.65198 81.5852 406.45898 77.738L406.45898 77.738L406.459 77.738zM424.55902 74.3333C 425.69403 73.4292 426.579 71.8134 427.21402 69.505196C 427.84903 67.1969 428.13702 63.984497 428.13702 59.848896C 428.13702 55.616997 427.829 52.308495 427.21402 49.942497C 426.59802 47.576496 425.71402 45.922195 424.54 44.998898C 423.367 44.075596 421.924 43.594696 420.174 43.594696C 418.40402 43.594696 416.923 44.056396 415.769 44.979694C 414.61502 45.902992 413.73 47.518795 413.114 49.865494C 412.49902 52.212296 412.191 55.443893 412.191 59.598793C 412.191 63.811394 412.49902 67.08149 413.114 69.409C 413.73 71.7557 414.61502 73.3715 415.769 74.2949C 416.90402 75.2182 418.385 75.6798 420.19302 75.6798C 421.963 75.699005 423.40503 75.237404 424.55902 74.333305z" stroke="none" fill="#FFFFFF" fill-rule="nonzero" />
            <path d="M445.812 36.4968L454.276 36.4968L455.084 42.8446L455.584 42.8446C 456.71902 40.4786 458.239 38.7281 460.182 37.6125C 462.105 36.4968 464.298 35.939 466.76 35.939C 467.741 35.939 468.72202 36.0159 469.68402 36.189L469.68402 36.189L469.68402 45.7492C 468.72202 45.576 467.549 45.4991 466.12503 45.4991C 464.06702 45.4991 462.12402 45.98 460.278 46.9225C 458.45 47.8651 457.027 49.1731 456.04602 50.8466L456.04602 50.8466L456.04602 82.6624L445.812 82.6624L445.812 36.4968z" stroke="none" fill="#FFFFFF" fill-rule="nonzero" />
            <path d="M506.714 62.8716L482.554 62.8716C 482.66898 66.007 483.13098 68.450005 483.95798 70.2389C 484.78497 72.0086 486.03598 73.2781 487.72797 74.0475C 489.42096 74.817 491.67197 75.1825 494.49896 75.1825C 497.40396 75.1825 500.76996 74.64381 504.57895 73.5667L504.57895 73.5667L504.57895 81.895706C 502.52094 82.45351 500.59695 82.87671 498.80795 83.12681C 497.01895 83.37681 495.17294 83.511505 493.28696 83.511505C 488.38196 83.511505 484.38095 82.703606 481.28397 81.0686C 478.18698 79.4335 475.89798 76.875206 474.39798 73.374306C 472.89798 69.8542 472.14697 65.21841 472.14697 59.428406C 472.14697 51.522606 473.70596 45.617207 476.82196 41.673904C 479.93796 37.730602 484.34296 35.768604 490.05597 35.768604C 501.17398 35.768604 506.73297 43.751404 506.73297 59.717003L506.73297 59.717003L506.73297 62.8716L506.71396 62.8716L506.714 62.8716zM486.03598 44.001404C 484.97797 44.790104 484.13098 46.175102 483.516 48.156303C 482.9 50.137604 482.573 52.849804 482.535 56.331505L482.535 56.331505L497.058 56.331505C 497.03802 52.869106 496.73102 50.137604 496.173 48.156303C 495.615 46.175102 494.82602 44.790104 493.807 44.001404C 492.78702 43.212803 491.518 42.808804 489.99802 42.808804C 488.42102 42.808804 487.09402 43.212803 486.036 44.001404z" stroke="none" fill="#FFFFFF" fill-rule="nonzero" />
		</g>
	</g>
</g>
</svg>